<?xml version="1.0" encoding="utf-8"?>
<!-- Generator: Adobe Illustrator 16.0.0, SVG Export Plug-In . SVG Version: 6.00 Build 0)  -->
<!DOCTYPE svg PUBLIC "-//W3C//DTD SVG 1.1//EN" "http://www.w3.org/Graphics/SVG/1.1/DTD/svg11.dtd">
<svg version="1.1" id="Layer_1" xmlns="http://www.w3.org/2000/svg" xmlns:xlink="http://www.w3.org/1999/xlink" x="0px" y="0px"
	 viewBox="0 0 266.134 266.136"
	 xml:space="preserve">
<g id="helix">
	<path d="M266.134,91.042V79.988c-8.49,2.565-16.44,6.272-23.653,10.916c-12.006,7.747-21.944,18.136-28.896,30.278
		c-6.953-12.142-16.893-22.533-28.899-30.278c-14.693-9.47-32.478-15.019-51.618-15.019S96.146,81.434,81.45,90.903
		c-12.006,7.744-21.945,18.136-28.898,30.277c-6.954-12.142-16.89-22.53-28.897-30.277C16.448,86.26,8.494,82.556,0,79.988v11.055
		c2.066,0.709,4.09,1.495,6.07,2.353v45.734c-1.34,0.476-2.545,1.249-3.533,2.24l-0.009-0.008c-1.713,1.713-2.776,4.087-2.776,6.702
		c0,2.607,1.06,4.975,2.776,6.69l0.009,0.006l0.004,0.007c0.987,0.987,2.192,1.758,3.529,2.234v15.737
		c-1.98,0.854-4.004,1.644-6.07,2.354v11.057c8.493-2.568,16.446-6.272,23.655-10.917c12.007-7.745,21.943-18.139,28.897-30.28
		c6.952,12.145,16.892,22.535,28.898,30.28c14.696,9.471,32.478,15.02,51.618,15.02s36.924-5.547,51.618-15.02
		c12.009-7.747,21.946-18.138,28.899-30.281c6.952,12.144,16.892,22.536,28.896,30.281c7.212,4.645,15.163,8.352,23.653,10.917
		v-11.057c-2.166-0.744-4.288-1.572-6.362-2.481v-35.65c1.347-0.477,2.555-1.248,3.545-2.235c1.713-1.716,2.776-4.089,2.776-6.704
		c0-2.609-1.066-4.978-2.785-6.696l0.009-0.006c-0.988-0.988-2.198-1.762-3.545-2.238V93.526
		C261.848,92.618,263.971,91.786,266.134,91.042z M170.261,126.033c-0.881,0-1.671-0.349-2.234-0.915v-0.012
		c-0.57-0.571-0.926-1.364-0.926-2.233c0-0.882,0.352-1.673,0.912-2.236l0.014-0.01c0.563-0.563,1.354-0.913,2.234-0.913
		c0.872,0,1.666,0.356,2.234,0.923h0.014c0.562,0.563,0.913,1.355,0.913,2.236c0,0.869-0.356,1.663-0.927,2.233
		C171.927,125.678,171.133,126.033,170.261,126.033z M167.101,113.937c-1.34,0.476-2.543,1.247-3.529,2.234l-0.004,0.005
		l-0.007,0.009c-1.718,1.716-2.777,4.08-2.777,6.689c0,2.612,1.063,4.986,2.777,6.701l0.007-0.007
		c0.988,0.991,2.192,1.764,3.535,2.241v40.916c-9.444,4.089-19.871,6.54-30.874,6.934v-10.99c1.346-0.477,2.557-1.24,3.545-2.229
		c1.714-1.713,2.774-4.087,2.774-6.702c0-2.611-1.064-4.979-2.784-6.698l0.009-0.006c-0.989-0.989-2.198-1.76-3.545-2.236V86.472
		c11.003,0.395,21.43,2.846,30.873,6.935V113.937z M93.638,132.478c0.561-0.564,1.353-0.914,2.235-0.914
		c0.872,0,1.666,0.356,2.233,0.926h0.013c0.563,0.562,0.912,1.354,0.912,2.233c0,0.871-0.354,1.663-0.925,2.233
		c-0.568,0.571-1.361,0.927-2.233,0.927c-0.882,0-1.673-0.35-2.235-0.915v-0.012c-0.568-0.57-0.925-1.362-0.925-2.233
		c0-0.881,0.352-1.673,0.913-2.233L93.638,132.478z M99.03,143.664c1.347-0.475,2.557-1.251,3.545-2.239
		c1.713-1.713,2.776-4.086,2.776-6.701c0-2.61-1.064-4.98-2.784-6.695l0.008-0.008c-0.988-0.989-2.198-1.76-3.545-2.237V93.41
		c9.445-4.09,19.874-6.542,30.878-6.936v64.328c-1.34,0.476-2.545,1.248-3.532,2.233l-0.004,0.006l-0.006,0.007
		c-1.717,1.716-2.779,4.081-2.779,6.691c0,2.613,1.064,4.987,2.779,6.702l0.006-0.006c0.987,0.988,2.195,1.75,3.536,2.229v10.994
		c-11.004-0.393-21.433-2.845-30.878-6.935V143.664L99.03,143.664z M135.301,161.973c-0.568,0.569-1.362,0.924-2.235,0.924
		c-0.881,0-1.671-0.349-2.234-0.911v-0.013c-0.568-0.571-0.925-1.363-0.925-2.233c0-0.883,0.349-1.673,0.916-2.235l0.011-0.012
		c0.561-0.563,1.353-0.915,2.234-0.915c0.872,0,1.664,0.358,2.235,0.927h0.013c0.562,0.563,0.913,1.354,0.913,2.235
		C136.228,160.609,135.872,161.401,135.301,161.973z M11.467,150.299c-0.57,0.571-1.366,0.927-2.235,0.927
		c-0.881,0-1.671-0.353-2.233-0.912l-0.015-0.015c-0.561-0.563-0.912-1.354-0.912-2.234c0-0.872,0.356-1.664,0.927-2.232v-0.016
		c0.562-0.563,1.353-0.911,2.233-0.911c0.87,0,1.666,0.354,2.235,0.927c0.571,0.568,0.925,1.36,0.925,2.232
		c0,0.882-0.35,1.673-0.913,2.234H11.467z M17.977,166.383c-1.81,1.169-3.672,2.267-5.584,3.296V157
		c1.347-0.477,2.556-1.245,3.542-2.233l-0.006-0.006c1.719-1.72,2.785-4.086,2.785-6.698c0-2.613-1.063-4.987-2.777-6.702
		c-0.986-0.987-2.196-1.759-3.542-2.235v-42.67c1.912,1.027,3.774,2.129,5.584,3.295c12.772,8.233,22.88,19.794,28.885,33.317
		C40.858,146.588,30.749,158.152,17.977,166.383z M58.247,133.066c6.002-13.524,16.113-25.081,28.883-33.315
		c1.806-1.165,3.672-2.256,5.582-3.284v29.318c-1.34,0.477-2.543,1.248-3.53,2.235l-0.004,0.008l-0.006,0.004
		c-1.717,1.716-2.777,4.082-2.777,6.69c0,2.614,1.063,4.988,2.777,6.701l0.006-0.006c0.988,0.993,2.193,1.765,3.535,2.239v26.01
		c-1.909-1.027-3.776-2.118-5.582-3.283C74.36,158.152,64.249,146.588,58.247,133.066z M179.008,166.385
		c-1.81,1.165-3.676,2.257-5.586,3.284v-37.855c1.347-0.477,2.553-1.25,3.543-2.238c1.713-1.714,2.776-4.088,2.776-6.701
		s-1.066-4.981-2.786-6.698l0.009-0.005c-0.989-0.989-2.197-1.759-3.544-2.235V96.467c1.911,1.028,3.777,2.12,5.586,3.285
		c12.767,8.234,22.879,19.793,28.884,33.315C201.891,146.588,191.776,158.152,179.008,166.385z M253.455,169.52
		c-1.81-0.984-3.574-2.029-5.291-3.137c-12.77-8.232-22.88-19.795-28.884-33.315c6.002-13.522,16.113-25.085,28.884-33.317
		c1.717-1.104,3.481-2.152,5.291-3.135v22.469c-1.34,0.476-2.544,1.247-3.532,2.233l-0.003,0.006l-0.007,0.006
		c-1.718,1.715-2.777,4.081-2.777,6.689c0,2.615,1.062,4.988,2.777,6.704l0.007-0.009c0.99,0.99,2.193,1.765,3.535,2.241V169.52z
		 M258.847,130.254c-0.568,0.572-1.362,0.925-2.234,0.925c-0.882,0-1.673-0.35-2.234-0.911v-0.014
		c-0.57-0.568-0.926-1.361-0.926-2.233c0-0.882,0.35-1.671,0.912-2.235l0.014-0.014c0.562-0.561,1.353-0.913,2.234-0.913
		c0.871,0,1.664,0.356,2.234,0.927h0.013c0.563,0.563,0.912,1.353,0.912,2.235C259.772,128.893,259.419,129.686,258.847,130.254z"/>
</g>
<g id="schematics">
	<path d="M243.111,58.483h23.023v4.834h-23.023c-0.364,1.03-0.954,1.951-1.713,2.707c-1.31,1.313-3.126,2.126-5.127,2.126
		c-2,0-3.816-0.814-5.127-2.126c-1.312-1.311-2.125-3.126-2.125-5.127c0-1.999,0.813-3.813,2.125-5.125
		c1.313-1.314,3.127-2.126,5.127-2.126c2.001,0,3.817,0.813,5.127,2.126C242.157,56.529,242.748,57.454,243.111,58.483
		L243.111,58.483z M124.513,26.825c0.899,0,1.766,0.165,2.564,0.466l14.825-17.623H81.988c-0.365,1.03-0.956,1.951-1.71,2.708
		c-1.314,1.313-3.126,2.126-5.127,2.126c-2.002,0-3.816-0.813-5.128-2.126c-1.313-1.313-2.126-3.127-2.126-5.125
		c0-2.001,0.813-3.815,2.126-5.127C71.334,0.812,73.148,0,75.15,0c2.001,0,3.813,0.812,5.127,2.125
		c0.754,0.757,1.347,1.679,1.71,2.708h79.748c0.364-1.03,0.954-1.951,1.713-2.708C164.761,0.812,166.575,0,168.575,0
		s3.814,0.812,5.126,2.125c1.313,1.313,2.124,3.126,2.124,5.127c0,1.998-0.811,3.813-2.124,5.125
		c-1.312,1.313-3.126,2.126-5.126,2.126s-3.813-0.813-5.126-2.126c-0.759-0.759-1.349-1.68-1.713-2.708h-13.548L130.756,30.39
		c0.637,1.077,1.007,2.338,1.007,3.686c0,2-0.813,3.813-2.125,5.125s-3.126,2.123-5.125,2.123c-2.002,0-3.817-0.811-5.127-2.123
		c-0.759-0.759-1.349-1.681-1.713-2.711H81.988c-0.365,1.03-0.956,1.953-1.71,2.711c-1.314,1.313-3.126,2.123-5.127,2.123
		c-2.002,0-3.816-0.811-5.128-2.123c-1.313-1.313-2.126-3.126-2.126-5.125c0-1.347,0.371-2.608,1.008-3.686L51.471,9.669H31.127
		l-17.433,20.72c0.637,1.08,1.006,2.341,1.006,3.688c0,2-0.813,3.813-2.122,5.125c-1.314,1.313-3.129,2.123-5.129,2.123
		c-2.001,0-3.813-0.811-5.127-2.123c-1.313-1.313-2.125-3.126-2.125-5.125c0-2.003,0.813-3.816,2.125-5.129
		c1.313-1.311,3.126-2.123,5.127-2.123c0.901,0,1.766,0.164,2.565,0.466L28.178,5.703l0.731-0.87h1.11h1.069h20.424h1.07h1.112
		l0.729,0.87l18.162,21.589c0.798-0.301,1.663-0.466,2.566-0.466c2.001,0,3.813,0.813,5.127,2.125c0.755,0.759,1.347,1.68,1.71,2.71
		h35.685c0.364-1.03,0.954-1.951,1.713-2.71C120.695,27.639,122.509,26.825,124.513,26.825L124.513,26.825z M126.219,32.367
		c-0.434-0.437-1.04-0.708-1.708-0.708c-0.67,0-1.276,0.271-1.71,0.708c-0.438,0.435-0.708,1.04-0.708,1.71
		c0,0.668,0.271,1.274,0.708,1.708c0.434,0.436,1.04,0.708,1.71,0.708c0.667,0,1.272-0.272,1.708-0.708
		c0.438-0.433,0.708-1.04,0.708-1.708C126.927,33.407,126.656,32.802,126.219,32.367L126.219,32.367z M7.45,0
		c2,0,3.816,0.813,5.129,2.126c1.31,1.31,2.122,3.126,2.122,5.127c0,1.998-0.813,3.816-2.122,5.128
		c-1.314,1.311-3.129,2.123-5.129,2.123c-2.001,0-3.813-0.812-5.127-2.123c-1.313-1.314-2.125-3.13-2.125-5.128
		c0-2.001,0.813-3.817,2.125-5.127C3.637,0.813,5.449,0,7.45,0L7.45,0z M9.16,5.542C8.727,5.105,8.117,4.833,7.45,4.833
		S6.174,5.105,5.738,5.542c-0.433,0.436-0.704,1.042-0.704,1.71c0,0.668,0.271,1.276,0.704,1.71C6.174,9.398,6.781,9.669,7.45,9.669
		s1.277-0.271,1.71-0.707c0.437-0.434,0.709-1.042,0.709-1.71C9.869,6.584,9.596,5.978,9.16,5.542L9.16,5.542z M258.838,0
		c1.999,0,3.815,0.813,5.128,2.126c1.311,1.31,2.125,3.126,2.125,5.127c0,1.998-0.814,3.816-2.125,5.128
		c-1.313,1.311-3.127,2.123-5.128,2.123c-0.902,0-1.768-0.164-2.565-0.466l-13.759,16.354c0.642,1.077,1.007,2.338,1.007,3.686
		c0,2-0.811,3.813-2.123,5.125s-3.126,2.125-5.127,2.125c-2,0-3.813-0.812-5.126-2.125c-0.759-0.759-1.347-1.681-1.713-2.71h-31.457
		c-0.158,0.445-0.357,0.87-0.595,1.268l13.757,16.352c0.798-0.3,1.662-0.466,2.566-0.466c2,0,3.813,0.813,5.126,2.126
		c1.313,1.312,2.126,3.126,2.126,5.125c0,2.001-0.813,3.816-2.126,5.127c-1.313,1.313-3.126,2.126-5.126,2.126
		c-2.003,0-3.817-0.814-5.129-2.126c-1.313-1.311-2.124-3.126-2.124-5.127c0-1.346,0.365-2.604,1.007-3.686l-13.757-16.351
		c-0.797,0.301-1.662,0.467-2.567,0.467c-2,0-3.813-0.815-5.126-2.127c-0.758-0.759-1.349-1.681-1.713-2.71h-7.959h-6.696h-21.456
		l-18.5,21.991h32.049c0.364-1.03,0.953-1.954,1.713-2.71c1.313-1.314,3.126-2.126,5.125-2.126c2.003,0,3.814,0.813,5.126,2.126
		c0.758,0.757,1.349,1.682,1.713,2.71h15.728h1.107l0.733,0.867l18.164,21.589c0.796-0.301,1.66-0.468,2.563-0.468
		c2,0,3.813,0.811,5.127,2.125c1.313,1.313,2.125,3.126,2.125,5.126c0,2.001-0.813,3.816-2.125,5.127
		c-1.313,1.313-3.127,2.125-5.127,2.125c-2.002,0-3.817-0.811-5.128-2.125c-1.313-1.313-2.125-3.126-2.125-5.127
		c0-1.344,0.366-2.605,1.006-3.687l-17.431-20.718h-14.616c-0.365,1.03-0.954,1.951-1.713,2.707
		c-1.312,1.313-3.126,2.126-5.126,2.126s-3.813-0.814-5.126-2.126c-0.759-0.757-1.349-1.678-1.713-2.707H95.764H81.986
		c-0.365,1.03-0.956,1.951-1.71,2.707c-1.314,1.313-3.126,2.126-5.127,2.126c-0.904,0-1.769-0.166-2.566-0.467L58.826,84.032
		c0.64,1.082,1.009,2.343,1.009,3.687c0,2.001-0.813,3.816-2.126,5.127c-1.312,1.313-3.126,2.125-5.127,2.125
		c-1.998,0-3.813-0.811-5.124-2.125c-1.313-1.313-2.126-3.126-2.126-5.127c0-2,0.813-3.814,2.126-5.126
		c1.311-1.313,3.126-2.125,5.124-2.125c0.901,0,1.768,0.165,2.565,0.468l13.759-16.355c-0.637-1.081-1.009-2.341-1.009-3.686
		c0-1.999,0.813-3.813,2.126-5.125c1.313-1.314,3.126-2.126,5.128-2.126c2.001,0,3.813,0.813,5.127,2.126
		c0.755,0.758,1.347,1.682,1.71,2.71h13.777h27.633l21.838-25.954l0.73-0.87h1.11h22.566h6.696h7.959
		c0.364-1.033,0.955-1.954,1.713-2.711c1.314-1.313,3.126-2.123,5.126-2.123c2.001,0,3.815,0.811,5.127,2.123
		c0.758,0.759,1.349,1.68,1.713,2.711h31.457c0.365-1.03,0.954-1.951,1.713-2.71c1.313-1.311,3.126-2.125,5.126-2.125
		c0.901,0,1.769,0.165,2.565,0.466l13.756-16.354c-0.64-1.082-1.007-2.341-1.007-3.686c0-2.001,0.813-3.817,2.124-5.127
		C255.025,0.813,256.836,0,258.838,0L258.838,0z M260.548,5.542c-0.434-0.437-1.043-0.709-1.71-0.709
		c-0.669,0-1.275,0.272-1.712,0.709c-0.433,0.436-0.704,1.042-0.704,1.71c0,0.668,0.271,1.276,0.704,1.71
		c0.437,0.436,1.043,0.707,1.712,0.707c0.667,0,1.276-0.271,1.71-0.707c0.436-0.434,0.709-1.042,0.709-1.71
		C261.257,6.584,260.984,5.978,260.548,5.542L260.548,5.542z M215.417,59.188c-0.436-0.437-1.043-0.705-1.711-0.705
		c-0.67,0-1.277,0.268-1.713,0.705c-0.434,0.436-0.706,1.043-0.706,1.71c0,0.668,0.272,1.275,0.706,1.711
		c0.436,0.436,1.043,0.706,1.713,0.706c0.668,0,1.275-0.271,1.711-0.706c0.434-0.436,0.705-1.043,0.705-1.711
		C216.123,60.231,215.851,59.624,215.417,59.188L215.417,59.188z M192.849,32.367c-0.434-0.437-1.043-0.708-1.712-0.708
		c-0.667,0-1.273,0.271-1.71,0.708c-0.433,0.433-0.704,1.04-0.704,1.71c0,0.668,0.271,1.274,0.704,1.71
		c0.437,0.433,1.043,0.706,1.71,0.706c0.669,0,1.277-0.272,1.712-0.706c0.435-0.436,0.707-1.042,0.707-1.71
		C193.558,33.407,193.285,32.8,192.849,32.367L192.849,32.367z M170.28,5.542c-0.433-0.434-1.04-0.706-1.708-0.706
		c-0.669,0-1.272,0.272-1.71,0.706c-0.434,0.436-0.705,1.042-0.705,1.71c0,0.668,0.271,1.274,0.705,1.71
		c0.438,0.433,1.041,0.704,1.71,0.704c0.667,0,1.275-0.271,1.708-0.704c0.437-0.436,0.709-1.042,0.709-1.71
		C170.989,6.584,170.716,5.978,170.28,5.542L170.28,5.542z M76.859,59.188c-0.433-0.437-1.04-0.705-1.708-0.705
		c-0.67,0-1.277,0.268-1.713,0.705c-0.433,0.436-0.704,1.043-0.704,1.71c0,0.668,0.271,1.275,0.704,1.711
		c0.436,0.436,1.042,0.706,1.713,0.706c0.667,0,1.275-0.271,1.708-0.706c0.436-0.436,0.709-1.043,0.709-1.711
		C77.568,60.231,77.295,59.624,76.859,59.188L76.859,59.188z M237.982,32.367c-0.436-0.437-1.043-0.708-1.71-0.708
		s-1.273,0.271-1.711,0.708c-0.434,0.435-0.705,1.04-0.705,1.71c0,0.668,0.271,1.274,0.705,1.708
		c0.438,0.436,1.043,0.708,1.711,0.708c0.667,0,1.274-0.272,1.71-0.708c0.434-0.433,0.706-1.04,0.706-1.708
		C238.688,33.407,238.416,32.802,237.982,32.367L237.982,32.367z M237.982,59.188c-0.436-0.437-1.043-0.705-1.71-0.705
		s-1.275,0.268-1.711,0.705c-0.435,0.436-0.706,1.043-0.706,1.71c0,0.668,0.271,1.275,0.706,1.711s1.043,0.706,1.711,0.706
		c0.667,0,1.274-0.271,1.71-0.706c0.437-0.435,0.709-1.043,0.709-1.711C238.691,60.231,238.418,59.624,237.982,59.188
		L237.982,59.188z M76.859,32.367c-0.433-0.437-1.04-0.708-1.708-0.708c-0.67,0-1.277,0.271-1.713,0.708
		c-0.433,0.435-0.704,1.04-0.704,1.71c0,0.668,0.271,1.274,0.704,1.708c0.436,0.436,1.042,0.708,1.713,0.708
		c0.667,0,1.275-0.272,1.708-0.708c0.436-0.433,0.709-1.04,0.709-1.708C77.568,33.407,77.295,32.802,76.859,32.367L76.859,32.367z
		 M9.16,32.367c-0.433-0.437-1.043-0.708-1.71-0.708s-1.275,0.271-1.711,0.708c-0.433,0.433-0.704,1.04-0.704,1.71
		c0,0.668,0.271,1.274,0.704,1.708c0.436,0.436,1.043,0.708,1.711,0.708s1.277-0.272,1.71-0.708c0.437-0.433,0.709-1.04,0.709-1.708
		C9.869,33.407,9.596,32.8,9.16,32.367L9.16,32.367z M52.582,53.646c2.001,0,3.814,0.813,5.127,2.126
		c1.314,1.312,2.126,3.126,2.126,5.125c0,2.001-0.813,3.816-2.126,5.127c-1.313,1.313-3.126,2.126-5.127,2.126
		c-1.998,0-3.813-0.814-5.124-2.126c-0.759-0.757-1.349-1.68-1.713-2.71H-0.001v-4.834h45.746c0.156-0.446,0.36-0.866,0.595-1.268
		L32.585,40.86c-0.797,0.301-1.664,0.467-2.566,0.467c-2.002,0-3.817-0.814-5.128-2.127c-1.313-1.313-2.125-3.126-2.125-5.125
		c0-1.997,0.812-3.805,2.125-5.12v-0.009c1.313-1.313,3.126-2.123,5.128-2.123c1.999,0,3.813,0.811,5.125,2.123
		c1.313,1.314,2.125,3.126,2.125,5.129c0,1.344-0.367,2.605-1.004,3.686l13.755,16.351C50.817,53.814,51.682,53.646,52.582,53.646
		L52.582,53.646z M54.292,59.188c-0.435-0.437-1.042-0.705-1.71-0.705c-0.667,0-1.272,0.268-1.71,0.705
		c-0.433,0.436-0.704,1.043-0.704,1.71c0,0.668,0.272,1.275,0.704,1.711c0.438,0.436,1.043,0.706,1.71,0.706
		c0.668,0,1.275-0.271,1.71-0.706c0.434-0.436,0.706-1.043,0.706-1.711C54.999,60.231,54.727,59.624,54.292,59.188L54.292,59.188z
		 M31.726,32.367c-0.433-0.437-1.04-0.708-1.708-0.708c-0.67,0-1.277,0.271-1.711,0.708l-0.004-0.006
		c-0.433,0.438-0.704,1.042-0.704,1.716c0,0.668,0.272,1.274,0.708,1.71c0.433,0.433,1.04,0.706,1.711,0.706
		c0.667,0,1.274-0.272,1.708-0.706c0.437-0.436,0.708-1.042,0.708-1.71C32.433,33.407,32.162,32.8,31.726,32.367L31.726,32.367z
		 M170.283,59.188c-0.435-0.437-1.04-0.705-1.71-0.705c-0.668,0-1.272,0.268-1.71,0.705c-0.433,0.436-0.704,1.043-0.704,1.71
		c0,0.668,0.271,1.275,0.704,1.711c0.438,0.436,1.042,0.706,1.71,0.706c0.667,0,1.275-0.271,1.71-0.706
		c0.437-0.436,0.709-1.043,0.709-1.711C170.992,60.231,170.719,59.624,170.283,59.188L170.283,59.188z M213.708,0.001
		c2,0,3.813,0.812,5.127,2.125c1.313,1.314,2.124,3.126,2.124,5.127c0,1.998-0.811,3.813-2.124,5.125s-3.127,2.126-5.127,2.126
		c-2.003,0-3.814-0.813-5.126-2.126c-1.313-1.313-2.126-3.127-2.126-5.125c0-2.001,0.815-3.813,2.126-5.127
		C209.892,0.813,211.705,0.001,213.708,0.001L213.708,0.001z M215.415,5.542c-0.433-0.434-1.04-0.706-1.708-0.706
		c-0.67,0-1.274,0.272-1.71,0.706c-0.437,0.436-0.709,1.042-0.709,1.71c0,0.668,0.272,1.274,0.709,1.71
		c0.436,0.433,1.04,0.704,1.71,0.704c0.668,0,1.275-0.271,1.708-0.704c0.437-0.436,0.708-1.042,0.708-1.71
		C216.123,6.584,215.851,5.978,215.415,5.542L215.415,5.542z M215.417,86.013c-0.436-0.438-1.043-0.709-1.711-0.709
		c-0.67,0-1.277,0.271-1.713,0.709c-0.434,0.433-0.706,1.04-0.706,1.707c0,0.67,0.272,1.277,0.706,1.711
		c0.436,0.436,1.043,0.708,1.713,0.708c0.668,0,1.275-0.272,1.711-0.708c0.434-0.433,0.705-1.04,0.705-1.711
		C216.123,87.055,215.851,86.448,215.417,86.013L215.417,86.013z M76.859,5.542c-0.433-0.434-1.04-0.706-1.708-0.706
		c-0.67,0-1.277,0.272-1.713,0.706c-0.433,0.436-0.704,1.042-0.704,1.71c0,0.668,0.271,1.274,0.704,1.71
		c0.436,0.433,1.042,0.704,1.713,0.704c0.667,0,1.275-0.271,1.708-0.704c0.436-0.436,0.709-1.042,0.709-1.71
		C77.568,6.584,77.295,5.978,76.859,5.542L76.859,5.542z M54.292,86.013c-0.435-0.438-1.042-0.709-1.71-0.709
		c-0.667,0-1.272,0.271-1.71,0.709c-0.433,0.433-0.704,1.04-0.704,1.707c0,0.67,0.272,1.277,0.704,1.711
		c0.438,0.436,1.043,0.708,1.71,0.708c0.668,0,1.275-0.272,1.71-0.708c0.434-0.433,0.706-1.04,0.706-1.711
		C54.999,87.055,54.727,86.448,54.292,86.013L54.292,86.013z"/>
	<path d="M29.865,212.488c-2.001,0-3.816-0.813-5.127-2.123c-0.757-0.758-1.348-1.683-1.713-2.709H-0.001v-4.834h23.026
		c0.365-1.03,0.956-1.954,1.713-2.713c1.312-1.312,3.125-2.125,5.127-2.125c0.901,0,1.766,0.165,2.563,0.467L46.185,182.1
		c-0.64-1.08-1.009-2.341-1.009-3.687c0-2,0.815-3.813,2.127-5.128c1.314-1.311,3.126-2.123,5.126-2.123
		c2.001,0,3.813,0.813,5.127,2.123c1.313,1.315,2.124,3.128,2.124,5.128c0,2.002-0.811,3.815-2.124,5.127
		c-1.314,1.313-3.126,2.122-5.127,2.122c-0.901,0-1.765-0.165-2.562-0.467L36.105,201.55c0.64,1.081,1.009,2.344,1.009,3.687
		c0,2-0.815,3.813-2.125,5.127C33.678,211.675,31.865,212.488,29.865,212.488L29.865,212.488z M29.865,239.312
		c-2.001,0-3.816-0.814-5.127-2.126c-0.757-0.754-1.348-1.678-1.713-2.708H-0.001v-4.835h23.026
		c0.365-1.026,0.956-1.951,1.713-2.708c1.312-1.315,3.125-2.123,5.127-2.123c2,0,3.814,0.809,5.125,2.123
		c1.31,1.312,2.125,3.124,2.125,5.123c0,1.349-0.369,2.607-1.009,3.69L49.866,252.1c0.797-0.301,1.663-0.468,2.565-0.468
		c2.001,0,3.813,0.816,5.127,2.126c0.758,0.758,1.347,1.679,1.71,2.709h33.119l-14.825-17.622c-0.798,0.301-1.663,0.467-2.565,0.467
		c-2,0-3.814-0.814-5.127-2.126c-1.313-1.311-2.126-3.124-2.126-5.127c0-1.998,0.813-3.813,2.126-5.123
		c1.313-1.315,3.126-2.123,5.127-2.123c2.001,0,3.816,0.81,5.125,2.123c1.313,1.312,2.126,3.125,2.126,5.123
		c0,1.349-0.367,2.611-1.005,3.691l17.432,20.718h62.909c0.364-1.029,0.956-1.953,1.713-2.711c1.314-1.309,3.123-2.123,5.127-2.123
		c2,0,3.813,0.816,5.126,2.123v0.009c1.313,1.316,2.126,3.127,2.126,5.121c0,1.998-0.813,3.816-2.126,5.123
		c-1.313,1.315-3.126,2.126-5.126,2.126c-2.002,0-3.813-0.812-5.127-2.126c-0.757-0.755-1.349-1.679-1.713-2.709H59.27
		c-0.364,1.03-0.953,1.951-1.71,2.709c-1.314,1.315-3.126,2.126-5.127,2.126c-2,0-3.813-0.812-5.126-2.126
		c-1.313-1.312-2.127-3.125-2.127-5.123c0-1.346,0.369-2.605,1.009-3.688l-13.756-16.354
		C31.632,239.145,30.766,239.312,29.865,239.312L29.865,239.312z M28.154,233.768c0.436,0.436,1.04,0.708,1.711,0.708
		c0.667,0,1.274-0.273,1.708-0.708c0.435-0.434,0.708-1.039,0.708-1.71c0-0.664-0.274-1.272-0.708-1.706
		c-0.433-0.438-1.04-0.709-1.708-0.709c-0.67,0-1.275,0.272-1.711,0.709c-0.436,0.434-0.708,1.042-0.708,1.706
		C27.446,232.729,27.718,233.334,28.154,233.768L28.154,233.768z M190.987,212.491c-2,0-3.814-0.816-5.126-2.126
		c-0.759-0.758-1.349-1.682-1.713-2.709h-35.684c-0.364,1.027-0.955,1.951-1.713,2.709c-1.311,1.311-3.126,2.126-5.126,2.126
		c-0.592,0-1.163-0.072-1.714-0.208l-17.941,21.325l-0.73,0.869h-1.11h-1.07H98.637h-1.071h-1.108l-0.733-0.869l-18.16-21.585
		c-0.799,0.301-1.664,0.468-2.566,0.468c-2,0-3.814-0.816-5.127-2.126c-1.313-1.314-2.126-3.128-2.126-5.127
		s0.813-3.813,2.126-5.128c1.313-1.311,3.126-2.124,5.127-2.124c2.001,0,3.816,0.814,5.125,2.124
		c1.313,1.315,2.126,3.129,2.126,5.128c0,1.343-0.367,2.604-1.005,3.687l17.432,20.72h20.347l16.839-20.013
		c-0.933-1.22-1.484-2.743-1.484-4.393c0-1.998,0.813-3.813,2.124-5.126c1.314-1.313,3.128-2.126,5.127-2.126
		c2,0,3.817,0.815,5.126,2.126c0.758,0.758,1.349,1.679,1.713,2.709h35.684c0.364-1.03,0.956-1.951,1.713-2.709
		c1.313-1.313,3.126-2.126,5.126-2.126c0.902,0,1.768,0.167,2.565,0.467l13.754-16.354c-0.64-1.08-1.007-2.338-1.007-3.684
		c0-2,0.813-3.813,2.128-5.128c1.311-1.311,3.126-2.121,5.127-2.121s3.814,0.812,5.127,2.121c1.314,1.315,2.126,3.128,2.126,5.128
		c0,2.002-0.813,3.815-2.126,5.127c-1.313,1.313-3.126,2.121-5.127,2.121c-0.902,0-1.768-0.164-2.563-0.466l-13.761,16.354
		c0.639,1.081,1.009,2.344,1.009,3.687c0,2-0.813,3.814-2.126,5.127C194.801,211.675,192.987,212.491,190.987,212.491
		L190.987,212.491z M189.277,206.946l0.169,0.155h0.002l0.021,0.017l0.049,0.036l0.021,0.019h0.001l0.046,0.033h0.002l0.044,0.034
		h0.005l0.021,0.015l0.024,0.018h0.003l0.022,0.016l0.024,0.017h0.002l0.024,0.015l0.024,0.015h0.001l0.05,0.03h0.002l0.022,0.014
		l0.027,0.012h0.002l0.022,0.016l0.027,0.015h0.002l0.024,0.012l0.027,0.011h0.001l0.026,0.012l0.026,0.013h0.002l0.025,0.012
		l0.027,0.012h0.002l0.025,0.012l0.028,0.011h0.002l0.025,0.011l0.029,0.009l0.027,0.008l0.03,0.009l0.001,0.003l0.025,0.009
		l0.029,0.009h0.003l0.025,0.01l0.03,0.006h0.002l0.026,0.006l0.03,0.009l0.029,0.005l0.03,0.009h0.002l0.026,0.006l0.03,0.003
		h0.001l0.029,0.006l0.029,0.006l0.063,0.01l0.062,0.006l0.06,0.006l0.063,0.006l0.062,0.003h0.062h0.063l0.062-0.003l0.062-0.006
		l0.063-0.006l0.062-0.006l0.06-0.01l0.029-0.006l0.03-0.006h0.001l0.029-0.003l0.029-0.006l0.06-0.014l0.059-0.015l0.028-0.006
		l0.029-0.01h0.001l0.027-0.009l0.03-0.009v-0.003l0.028-0.009l0.027-0.008l0.058-0.02l0.028-0.011l0.024-0.012h0.002l0.028-0.012
		l0.026-0.012l0.054-0.024l0.029-0.011l0.024-0.012h0.003l0.027-0.015l0.024-0.016l0.051-0.025l0.026-0.015l0.024-0.016h0.001
		l0.024-0.015l0.026-0.015l0.049-0.031l0.025-0.018l0.021-0.014h0.002l0.025-0.018l0.023-0.019l0.047-0.033l0.023-0.017l0.021-0.019
		h0.001l0.023-0.021l0.02-0.018h0.002l0.043-0.034v-0.003l0.022-0.02l0.106-0.098v-0.003l0.02-0.018l0.021-0.021V206.9l0.021-0.02
		l0.059-0.066l0.018-0.021l0.019-0.024l0,0l0.018-0.02l0.017-0.024v-0.003l0.018-0.022l0.019-0.023l0,0l0.033-0.046v-0.003
		l0.034-0.046l0,0l0.016-0.022l0.016-0.027v-0.003l0.018-0.021l0.016-0.027v-0.003l0.016-0.022l0.013-0.023v-0.003l0.03-0.049
		v-0.003l0.014-0.024l0.013-0.025v-0.003l0.014-0.024l0.014-0.025v-0.003l0.011-0.027l0.014-0.026v-0.003l0.011-0.022l0.014-0.03
		v-0.003l0.01-0.022l0.012-0.03l0,0l0.011-0.026l0.011-0.029v-0.003l0.009-0.026l0.01-0.03l0.009-0.025l0.008-0.03h0.002l0.007-0.03
		l0.009-0.025v-0.005l0.009-0.025l0.006-0.028v-0.005l0.006-0.028l0.008-0.029l0.008-0.03l0.006-0.028v-0.003l0.006-0.027
		l0.004-0.028v-0.003l0.004-0.03l0.006-0.03l0.008-0.06l0.005-0.061l0.006-0.061l0.005-0.063l0.003-0.061v-0.063v-0.063
		l-0.003-0.061l-0.002-0.032l-0.003-0.028v-0.003l-0.001-0.03l-0.005-0.03l-0.005-0.06l-0.003-0.032l-0.005-0.028v-0.003
		l-0.006-0.03l-0.004-0.028v-0.003l-0.004-0.03l-0.006-0.025v-0.003l-0.006-0.03l-0.008-0.028l0,0l-0.008-0.032l-0.006-0.025v-0.003
		l-0.006-0.03l-0.009-0.025v-0.003l-0.009-0.027l-0.007-0.029l-0.002-0.003l-0.008-0.029l-0.011-0.023v-0.003l-0.008-0.031
		l-0.009-0.023v-0.003l-0.011-0.028l-0.011-0.024v-0.003l-0.012-0.028l-0.012-0.024v-0.003l-0.012-0.029l-0.011-0.024v-0.003
		l-0.014-0.025l-0.011-0.024v-0.006l-0.015-0.025l-0.013-0.023v-0.003l-0.013-0.027l-0.014-0.022v-0.003l-0.059-0.098v-0.003
		l-0.016-0.025l-0.018-0.024l0,0l-0.016-0.026l-0.05-0.068v-0.003l-0.141-0.181l0,0l-0.119-0.127v-0.004l-0.128-0.113v-0.003
		l-0.111-0.093l-0.023-0.015v-0.003l-0.022-0.019l-0.024-0.015v-0.003l-0.023-0.014l-0.025-0.018h-0.002l-0.047-0.031v-0.003
		l-0.024-0.015l-0.024-0.015l-0.103-0.058l-0.051-0.029l-0.024-0.012l-0.027-0.015h-0.003L192.02,203l-0.029-0.015l-0.054-0.02
		l-0.026-0.012l-0.027-0.012h-0.003l-0.024-0.013l-0.028-0.012l-0.058-0.017l-0.056-0.021l-0.03-0.01l-0.027-0.009h-0.001
		l-0.029-0.009l-0.028-0.006l-0.059-0.014l-0.06-0.017l-0.029-0.005l-0.029-0.006h-0.001l-0.03-0.003l-0.029-0.009l-0.06-0.006
		l-0.062-0.006l-0.063-0.009l-0.062-0.003l-0.062-0.003h-0.063h-0.062l-0.062,0.003l-0.063,0.003l-0.06,0.009l-0.062,0.006
		l-0.063,0.006l-0.029,0.009l-0.029,0.003h-0.001l-0.03,0.006l-0.026,0.005h-0.002l-0.03,0.011l-0.029,0.006l-0.03,0.005
		l-0.026,0.009h-0.002l-0.03,0.006l-0.025,0.009h-0.003l-0.029,0.009l-0.025,0.01h-0.001l-0.029,0.009l-0.028,0.012l-0.029,0.008
		l-0.025,0.009h-0.002l-0.028,0.012l-0.025,0.013H190.1l-0.027,0.012l-0.025,0.012h-0.002l-0.026,0.009l-0.026,0.011h-0.001
		l-0.027,0.016l-0.024,0.012h-0.002l-0.027,0.015l-0.022,0.012h-0.002l-0.027,0.014l-0.022,0.016h-0.002l-0.075,0.042l-0.024,0.016
		h-0.002l-0.095,0.063h-0.003c-0.129,0.089-0.246,0.184-0.357,0.291l-0.117,0.131l0,0c-0.089,0.102-0.169,0.212-0.238,0.327v0.003
		l-0.059,0.098v0.002l-0.013,0.023l-0.014,0.025v0.003l-0.014,0.024l-0.013,0.026v0.006l-0.012,0.024l-0.013,0.025v0.003
		l-0.014,0.024l-0.011,0.028v0.003l-0.011,0.024l-0.011,0.029v0.003l-0.012,0.022l-0.01,0.03v0.003l-0.011,0.022l-0.009,0.032v0.003
		l-0.011,0.022l-0.009,0.03v0.003l-0.007,0.028l-0.009,0.027v0.003l-0.009,0.026l-0.007,0.029v0.003l-0.008,0.026l-0.006,0.031l0,0
		l-0.005,0.029l-0.008,0.029v0.003l-0.006,0.026l-0.004,0.03v0.003l-0.003,0.028l-0.007,0.03v0.003l-0.005,0.028l-0.003,0.031
		l-0.007,0.061l-0.005,0.03l-0.001,0.03v0.003l-0.003,0.028l-0.001,0.031l-0.002,0.061v0.063v0.063l0.002,0.061l0.004,0.063
		l0.006,0.06l0.007,0.061l0.008,0.061l0.007,0.03l0.003,0.028v0.004l0.004,0.029l0.006,0.025v0.005l0.008,0.028l0.005,0.028
		l0.006,0.03l0.008,0.029v0.003l0.007,0.029l0.009,0.026v0.003l0.009,0.027l0.007,0.03l0.02,0.054l0.009,0.03l0.011,0.026v0.003
		l0.01,0.03l0.012,0.025l0,0l0.011,0.03l0.011,0.022v0.003l0.011,0.03l0.014,0.023v0.003l0.013,0.025l0.012,0.027v0.003l0.013,0.025
		l0.014,0.024v0.003l0.014,0.026l0.013,0.024v0.003l0.043,0.074l0.016,0.022v0.003l0.063,0.098l0,0l0.175,0.229L189.277,206.946
		L189.277,206.946z M141.625,239.314c-1.992,0-3.803-0.814-5.115-2.126h-0.01c-1.312-1.313-2.125-3.127-2.125-5.13
		c0-1.998,0.813-3.813,2.125-5.123c1.313-1.315,3.126-2.123,5.127-2.123c2.003,0,3.817,0.81,5.126,2.123
		c0.757,0.758,1.349,1.682,1.713,2.709h35.684c0.364-1.027,0.954-1.951,1.713-2.709c1.313-1.315,3.126-2.126,5.126-2.126
		c1.999,0,3.815,0.813,5.125,2.126c1.314,1.312,2.126,3.125,2.126,5.123c0,1.349-0.368,2.608-1.007,3.691l17.431,20.718h20.348
		l17.433-20.718c-0.64-1.082-1.01-2.343-1.01-3.691c0-1.998,0.813-3.813,2.126-5.123c1.312-1.315,3.126-2.123,5.127-2.123
		c2.002,0,3.816,0.81,5.125,2.123c1.313,1.312,2.126,3.125,2.126,5.123c0,2.003-0.813,3.817-2.126,5.13
		c-1.31,1.313-3.123,2.126-5.125,2.126c-0.902,0-1.764-0.166-2.562-0.47l-18.163,21.587l-0.733,0.869h-1.107h-1.073h-20.42h-1.072
		h-1.111l-0.732-0.869l-18.157-21.584c-0.8,0.301-1.664,0.467-2.568,0.467c-2,0-3.814-0.814-5.126-2.126
		c-0.759-0.757-1.349-1.678-1.713-2.711h-35.684c-0.364,1.033-0.955,1.954-1.713,2.711
		C145.441,238.5,143.627,239.314,141.625,239.314L141.625,239.314z M139.91,233.776c0.437,0.43,1.043,0.701,1.715,0.701
		c0.67,0,1.276-0.274,1.71-0.706c0.437-0.436,0.709-1.041,0.709-1.713c0-0.665-0.272-1.272-0.709-1.707
		c-0.434-0.437-1.04-0.707-1.71-0.707c-0.669,0-1.275,0.272-1.712,0.707c-0.433,0.435-0.704,1.043-0.704,1.707
		c0,0.672,0.272,1.277,0.704,1.713L139.91,233.776L139.91,233.776z M73.287,206.946c0.435,0.437,1.042,0.709,1.71,0.709
		c0.67,0,1.275-0.274,1.71-0.709c0.436-0.436,0.707-1.041,0.707-1.71c0-0.668-0.271-1.273-0.707-1.71
		c-0.435-0.434-1.04-0.704-1.71-0.704c-0.668,0-1.275,0.272-1.71,0.704c-0.434,0.437-0.706,1.042-0.706,1.71
		C72.581,205.905,72.852,206.512,73.287,206.946L73.287,206.946z M211.841,180.124c0.437,0.437,1.042,0.707,1.713,0.707
		c0.669,0,1.275-0.272,1.712-0.707c0.433-0.433,0.705-1.041,0.705-1.71c0-0.668-0.272-1.273-0.705-1.71
		c-0.437-0.434-1.043-0.706-1.712-0.706c-0.67,0-1.276,0.274-1.713,0.706c-0.434,0.437-0.704,1.042-0.704,1.71
		C211.137,179.083,211.408,179.691,211.841,180.124L211.841,180.124z M50.72,180.124c0.436,0.437,1.042,0.707,1.71,0.707
		s1.274-0.272,1.708-0.707c0.436-0.433,0.707-1.041,0.707-1.71c0-0.668-0.271-1.273-0.707-1.71c-0.433-0.434-1.04-0.706-1.708-0.706
		s-1.274,0.274-1.71,0.706c-0.434,0.437-0.706,1.042-0.706,1.71C50.014,179.083,50.286,179.691,50.72,180.124L50.72,180.124z
		 M50.72,260.596c0.436,0.433,1.042,0.704,1.71,0.704s1.274-0.272,1.708-0.704c0.436-0.438,0.707-1.045,0.707-1.71
		c0-0.669-0.271-1.274-0.707-1.71c-0.433-0.437-1.04-0.706-1.708-0.706s-1.274,0.271-1.71,0.706
		c-0.434,0.436-0.706,1.041-0.706,1.71C50.014,259.551,50.286,260.158,50.72,260.596L50.72,260.596z M213.551,234.478
		c0.669,0,1.275-0.274,1.71-0.709c0.434-0.433,0.706-1.038,0.706-1.71c0-0.664-0.272-1.272-0.706-1.705
		c-0.435-0.438-1.041-0.709-1.71-0.709c-0.668,0-1.276,0.272-1.71,0.709c-0.437,0.433-0.707,1.041-0.707,1.705
		c0,0.672,0.271,1.277,0.707,1.71C212.275,234.203,212.883,234.478,213.551,234.478L213.551,234.478z M218.678,237.185
		c-1.313,1.313-3.126,2.126-5.127,2.126c-2,0-3.815-0.814-5.126-2.126c-1.313-1.312-2.126-3.125-2.126-5.127
		c0-1.999,0.813-3.813,2.126-5.123c1.312-1.315,3.128-2.123,5.126-2.123c0.901,0,1.768,0.163,2.565,0.465l13.759-16.354
		c-0.64-1.08-1.01-2.344-1.01-3.687c0-1.998,0.814-3.813,2.126-5.127c1.313-1.312,3.126-2.125,5.127-2.125
		c2.003,0,3.816,0.815,5.129,2.125c0.756,0.759,1.347,1.683,1.713,2.713h23.176v4.834h-23.179c-0.364,1.026-0.954,1.951-1.71,2.709
		c-1.314,1.311-3.126,2.126-5.129,2.126c-0.9,0-1.765-0.167-2.563-0.471l-13.759,16.357c0.642,1.078,1.009,2.338,1.009,3.681
		C220.804,234.06,219.99,235.875,218.678,237.185L218.678,237.185z M73.287,233.768c0.435,0.436,1.042,0.708,1.71,0.708
		c0.67,0,1.275-0.273,1.71-0.708c0.436-0.434,0.707-1.039,0.707-1.71c0-0.664-0.271-1.272-0.707-1.706
		c-0.435-0.438-1.04-0.709-1.71-0.709c-0.668,0-1.275,0.272-1.71,0.709c-0.434,0.434-0.706,1.042-0.706,1.706
		C72.58,232.729,72.852,233.334,73.287,233.768L73.287,233.768z M236.118,207.656c0.67,0,1.276-0.273,1.71-0.708
		c0.436-0.437,0.707-1.042,0.707-1.71c0-0.669-0.271-1.274-0.707-1.71c-0.434-0.434-1.04-0.705-1.71-0.705
		c-0.669,0-1.275,0.272-1.71,0.705c-0.437,0.436-0.706,1.041-0.706,1.71c0,0.668,0.271,1.273,0.706,1.71l-0.005,0.006
		C234.839,207.386,235.446,207.656,236.118,207.656L236.118,207.656z M52.43,212.488c-2,0-3.813-0.813-5.126-2.123
		c-1.313-1.315-2.127-3.128-2.127-5.127s0.815-3.813,2.127-5.128c1.314-1.311,3.126-2.124,5.126-2.124
		c2.001,0,3.813,0.814,5.127,2.124c1.313,1.315,2.124,3.129,2.124,5.128s-0.811,3.813-2.124,5.127
		C56.244,211.675,54.431,212.488,52.43,212.488L52.43,212.488z M50.72,206.943c0.436,0.437,1.042,0.709,1.71,0.709
		s1.274-0.274,1.708-0.709c0.436-0.433,0.707-1.038,0.707-1.707c0-0.668-0.271-1.273-0.707-1.71
		c-0.433-0.434-1.04-0.704-1.708-0.704s-1.274,0.272-1.71,0.704c-0.434,0.437-0.706,1.042-0.706,1.71
		C50.014,205.905,50.286,206.512,50.72,206.943L50.72,206.943z M139.915,206.946c0.437,0.437,1.043,0.709,1.711,0.709
		s1.277-0.274,1.71-0.709c0.437-0.436,0.709-1.041,0.709-1.71c0-0.668-0.272-1.273-0.709-1.71c-0.433-0.434-1.042-0.704-1.71-0.704
		s-1.274,0.272-1.711,0.704c-0.434,0.437-0.704,1.042-0.704,1.71C139.21,205.905,139.481,206.512,139.915,206.946L139.915,206.946z
		 M256.972,233.776c0.436,0.43,1.043,0.701,1.714,0.701c0.67,0,1.275-0.274,1.71-0.706c0.437-0.436,0.707-1.041,0.707-1.713
		c0-0.665-0.271-1.272-0.707-1.707c-0.435-0.437-1.04-0.707-1.71-0.707c-0.669,0-1.275,0.272-1.712,0.707
		c-0.433,0.435-0.705,1.043-0.705,1.707c0,0.672,0.272,1.277,0.705,1.713L256.972,233.776L256.972,233.776z M7.298,266.135
		c-2.001,0-3.814-0.813-5.127-2.127c-1.314-1.308-2.126-3.124-2.126-5.122c0-2,0.813-3.817,2.126-5.131
		c1.313-1.31,3.126-2.123,5.127-2.123c2.001,0,3.816,0.815,5.125,2.123c1.313,1.314,2.126,3.131,2.126,5.131
		c0,1.998-0.813,3.815-2.126,5.122C11.112,265.324,9.299,266.135,7.298,266.135L7.298,266.135z M5.586,260.596
		c0.436,0.436,1.043,0.704,1.711,0.704s1.275-0.27,1.708-0.704c0.438-0.438,0.708-1.045,0.708-1.71c0-0.669-0.271-1.277-0.708-1.71
		c-0.433-0.437-1.04-0.709-1.708-0.709c-0.667,0-1.275,0.273-1.711,0.709c-0.435,0.433-0.706,1.041-0.706,1.71
		C4.88,259.551,5.152,260.158,5.586,260.596L5.586,260.596z M189.277,233.771c0.437,0.433,1.043,0.705,1.71,0.705
		s1.274-0.273,1.712-0.705c0.435-0.437,0.705-1.042,0.705-1.713c0-0.664-0.271-1.272-0.705-1.71
		c-0.438-0.434-1.045-0.705-1.712-0.705s-1.273,0.272-1.71,0.705c-0.434,0.438-0.706,1.046-0.706,1.71
		C188.571,232.729,188.843,233.334,189.277,233.771L189.277,233.771z M166.711,260.596c0.436,0.436,1.04,0.704,1.71,0.704
		c0.667,0,1.273-0.27,1.71-0.704c0.433-0.438,0.704-1.045,0.704-1.71c0-0.672-0.267-1.28-0.701-1.716l-0.005,0.006
		c-0.436-0.437-1.043-0.709-1.71-0.709c-0.67,0-1.273,0.273-1.71,0.709c-0.437,0.433-0.706,1.041-0.706,1.71
		C166.003,259.551,166.275,260.158,166.711,260.596L166.711,260.596z M28.154,206.943c0.436,0.437,1.04,0.709,1.711,0.709
		c0.667,0,1.274-0.274,1.708-0.709c0.435-0.433,0.708-1.038,0.708-1.707c0-0.668-0.274-1.273-0.708-1.71
		c-0.433-0.434-1.04-0.704-1.708-0.704c-0.67,0-1.275,0.272-1.711,0.704c-0.436,0.437-0.708,1.042-0.708,1.71
		C27.446,205.905,27.718,206.512,28.154,206.943L28.154,206.943z"/>
</g>
</svg>
